<?xml version="1.0" encoding="utf-8"?>
<!-- Generator: Adobe Illustrator 13.0.2, SVG Export Plug-In . SVG Version: 6.00 Build 14948)  -->
<!DOCTYPE svg PUBLIC "-//W3C//DTD SVG 1.0//EN" "http://www.w3.org/TR/2001/REC-SVG-20010904/DTD/svg10.dtd">
<svg version="1.0" id="Ebene_2" xmlns="http://www.w3.org/2000/svg" xmlns:xlink="http://www.w3.org/1999/xlink" x="0px" y="0px"
	 width="591.226px" height="126.422px" viewBox="0 0 591.226 126.422" enable-background="new 0 0 591.226 126.422"
	 xml:space="preserve">
<path d="M591.226,48.357h-13.515l-10.27,31.779l-10.659-31.779h-13.525l17.578,47.768l-2.177,6.31
	c-1.286,3.754-2.761,4.639-6.418,4.639h-2.955v11.539h5.031c4.248,0,8.087-0.987,11.056-3.946c1.574-1.578,2.76-3.754,3.845-6.602
	L591.226,48.357z M541.682,99.763L523.92,73.515l17.076-25.158h-15.396l-8.783,14.697l-8.695-14.697h-15.39l17.083,25.158
	l-17.772,26.248h15.396l9.379-15.398l9.475,15.398H541.682z M474.978,74.011c0,5.324-0.301,9.866-2.967,12.538
	c-1.481,1.478-3.458,2.266-6.029,2.266c-2.561,0-4.44-0.788-5.922-2.266c-2.666-2.672-2.955-7.214-2.955-12.538
	c0-5.33,0.289-9.777,2.955-12.44c1.481-1.483,3.361-2.277,5.922-2.277c2.571,0,4.548,0.793,6.029,2.277
	C474.677,64.234,474.978,68.681,474.978,74.011 M487.801,74.011c0-9.284-1.196-15.112-5.833-19.935
	c-3.151-3.354-8.383-6.313-15.986-6.313c-7.598,0-12.724,2.959-15.879,6.313c-4.637,4.823-5.828,10.651-5.828,19.935
	c0,9.381,1.191,15.201,5.828,20.035c3.155,3.354,8.281,6.307,15.879,6.307c7.604,0,12.835-2.953,15.986-6.307
	C486.604,89.212,487.801,83.393,487.801,74.011 M442.198,52.592c-3.558-3.551-7.108-4.829-12.134-4.829
	c-5.527,0-10.46,2.563-12.931,5.519v-4.926h-12.519v51.406h12.818V68.768c0-6.506,4.342-9.474,8.288-9.474
	c3.156,0,4.826,1.088,6.808,3.062L442.198,52.592z M380.335,51.41c0,5.733-3.951,9.582-10.169,9.582h-12.835V41.733h12.835
	C376.384,41.733,380.335,45.679,380.335,51.41 M394.045,51.41c0-11.954-8.684-21.897-23.188-21.897h-27.236v70.25h13.71V73.31
	h13.526C385.361,73.31,394.045,63.357,394.045,51.41 M317.572,74.011c0,8.385-0.991,14.803-8.695,14.803
	c-7.703,0-8.688-6.418-8.688-14.803c0-8.397,0.985-14.717,8.688-14.717C316.581,59.294,317.572,65.614,317.572,74.011
	 M330.391,74.011c0-7.709-0.101-16.487-5.232-21.614c-2.854-2.85-7.485-4.634-12.529-4.634c-5.426,0-9.284,1.486-12.835,5.424
	v-4.831h-12.423v70.255h12.818V95.223c3.356,3.749,7.215,5.13,12.44,5.13c5.044,0,9.675-1.776,12.529-4.634
	C330.29,90.595,330.391,81.709,330.391,74.011 M260.726,80.807c0,3.17-0.492,5.246-1.874,6.529c-2.277,2.174-4.548,2.472-8.1,2.472
	c-5.037,0-7.407-2.369-7.407-5.931c0-3.659,2.566-5.83,7.211-5.83h10.169V80.807z M273.545,99.763V65.917
	c0-12.042-7.496-18.154-21.904-18.154c-8.592,0-13.521,1.576-18.552,7.103l8.184,7.993c2.667-3.067,4.93-4.252,9.876-4.252
	c6.809,0,9.577,2.466,9.577,8.102v2.577h-12.147c-11.941,0-17.556,6.694-17.556,14.89c0,4.553,1.474,8.686,4.236,11.544
	c3.063,3.052,7.3,4.531,13.117,4.531c5.929,0,9.188-1.479,12.646-4.921v4.434H273.545z M219.265,99.763v-70.25h-13.506
	l-18.263,37.983l-18.363-37.983h-13.509v70.25h13.706v-40.95l13.527,26.637h9.277l13.428-26.637v40.95H219.265z"/>
<polygon fill="#34A8B9" points="29.674,30.228 60.124,30.228 60.057,0.043 0.03,0.091 0.006,60.135 29.68,60.162 "/>
<polygon fill="#34A8B9" points="30.148,96.648 30.257,66.347 0,66.408 0.063,126.422 60.107,126.349 60.067,96.721 "/>
<polygon fill="#34A8B9" points="126.863,0 126.904,60.09 97.267,60.174 97.195,30.184 66.791,30.233 66.734,0 "/>
<polygon fill="#34A8B9" points="96.745,96.766 96.723,66.308 126.893,66.291 126.965,126.338 66.817,126.405 66.785,96.726 "/>
<polygon points="90.035,89.847 37.073,89.869 37.151,36.908 90.049,36.929 "/>
</svg>
