<?xml version="1.0" encoding="UTF-8" standalone="no"?>
<!-- Generator: Adobe Illustrator 19.1.0, SVG Export Plug-In . SVG Version: 6.00 Build 0)  -->

<svg
   xmlns:dc="http://purl.org/dc/elements/1.1/"
   xmlns:cc="http://creativecommons.org/ns#"
   xmlns:rdf="http://www.w3.org/1999/02/22-rdf-syntax-ns#"
   xmlns:svg="http://www.w3.org/2000/svg"
   xmlns="http://www.w3.org/2000/svg"
   xmlns:sodipodi="http://sodipodi.sourceforge.net/DTD/sodipodi-0.dtd"
   xmlns:inkscape="http://www.inkscape.org/namespaces/inkscape"
   version="1.1"
   id="Layer_1"
   x="0px"
   y="0px"
   viewBox="0 0 166 39"
   xml:space="preserve"
   inkscape:version="0.91 r13725"
   sodipodi:docname="Stamen_LogoCR.svg"
   width="166"
   height="39"><metadata
   id="metadata4747"><rdf:RDF><cc:Work
       rdf:about=""><dc:format>image/svg+xml</dc:format><dc:type
         rdf:resource="http://purl.org/dc/dcmitype/StillImage" /><dc:title></dc:title></cc:Work></rdf:RDF></metadata><defs
   id="defs4745" /><sodipodi:namedview
   pagecolor="#ffffff"
   bordercolor="#666666"
   borderopacity="1"
   objecttolerance="10"
   gridtolerance="10"
   guidetolerance="10"
   inkscape:pageopacity="0"
   inkscape:pageshadow="2"
   inkscape:window-width="1280"
   inkscape:window-height="744"
   id="namedview4743"
   showgrid="false"
   inkscape:zoom="1.63"
   inkscape:cx="24.233129"
   inkscape:cy="40"
   inkscape:window-x="-4"
   inkscape:window-y="-4"
   inkscape:window-maximized="1"
   inkscape:current-layer="Layer_1" />
<path
   d="m 8.2,26.1 c 0.2,1.6 0.7,2.8 1.3,3.5 1.2,1.4 3.2,2.1 6.1,2.1 1.7,0 3.1,-0.2 4.2,-0.6 2.1,-0.7 3.1,-2.1 3.1,-4 0,-1.1 -0.5,-2 -1.5,-2.7 -1,-0.6 -2.6,-1.2 -4.8,-1.6 L 12.9,22.1 C 9.2,21.3 6.7,20.4 5.3,19.4 3,17.8 1.8,15.3 1.8,11.9 1.8,8.8 2.9,6.2 5.2,4.2 c 2.3,-2.1 5.6,-3.1 10,-3.1 3.7,0 6.8,1 9.4,2.9 2.6,1.9 4,4.7 4.1,8.4 l -6.9,0 C 21.7,10.3 20.7,8.8 19,8 17.9,7.4 16.4,7.1 14.7,7.1 12.8,7.1 11.3,7.5 10.2,8.2 9.1,9 8.5,10 8.5,11.3 c 0,1.2 0.6,2.2 1.7,2.8 0.7,0.4 2.2,0.9 4.6,1.4 l 6.1,1.4 c 2.7,0.6 4.6,1.5 6,2.5 2.1,1.6 3.1,4 3.1,7.1 0,3.2 -1.2,5.8 -3.7,7.9 -2.4,2.1 -5.9,3.1 -10.3,3.1 -4.5,0 -8.1,-1 -10.7,-3.1 C 2.7,32.3 1.4,29.5 1.4,25.9 l 6.8,0 z"
   id="path4731"
   inkscape:connector-curvature="0" />
<path
   d="m 31.4,16.2 0,-4.7 3.6,0 0,-7.2 6.7,0 0,7.2 4.1,0 0,4.7 -4.1,0 0,13.6 c 0,1.1 0.1,1.7 0.4,2 0.3,0.3 1.1,0.4 2.4,0.4 0.2,0 0.4,0 0.6,0 0.2,0 0.4,-0.1 0.7,-0.1 l 0,5 -3.2,0.2 C 39.4,37.4 37.3,36.9 36.1,35.7 35.3,34.9 35,33.7 35,32.1 l 0,-15.9 -3.6,0 z"
   id="path4733"
   inkscape:connector-curvature="0" />
<path
   d="m 59.7,21.2 c 1.2,-0.2 2.1,-0.4 2.7,-0.6 1,-0.4 1.4,-1 1.4,-1.9 0,-1.1 -0.4,-1.8 -1.1,-2.2 -0.7,-0.4 -1.8,-0.6 -3.2,-0.6 -1.6,0 -2.7,0.4 -3.4,1.2 -0.5,0.6 -0.8,1.4 -0.9,2.3 l -6.4,0 c 0.1,-2.2 0.8,-4 1.9,-5.5 1.8,-2.2 4.8,-3.3 9.1,-3.3 2.8,0 5.3,0.5 7.5,1.6 2.2,1.1 3.3,3.2 3.3,6.3 l 0,11.8 c 0,0.8 0,1.8 0,3 0,0.9 0.2,1.5 0.4,1.8 0.2,0.3 0.5,0.6 1,0.8 l 0,1 -7.3,0 c -0.2,-0.5 -0.3,-1 -0.4,-1.4 -0.1,-0.4 -0.1,-1 -0.2,-1.5 -0.9,1 -2,1.9 -3.2,2.6 -1.4,0.8 -3.1,1.3 -4.9,1.3 -2.3,0 -4.2,-0.7 -5.8,-2 -1.6,-1.6 -2.3,-3.5 -2.3,-5.9 0,-3.2 1.2,-5.5 3.7,-6.9 1.3,-0.8 3.3,-1.3 5.9,-1.7 l 2.2,-0.2 z m 4.1,3.1 c -0.4,0.3 -0.9,0.5 -1.3,0.7 -0.4,0.2 -1,0.3 -1.8,0.5 l -1.5,0.3 c -1.4,0.3 -2.4,0.6 -3.1,0.9 -1,0.6 -1.6,1.6 -1.6,2.9 0,1.2 0.3,2 1,2.5 0.6,0.5 1.4,0.8 2.3,0.8 1.5,0 2.8,-0.4 4,-1.3 1.2,-0.9 1.9,-2.4 1.9,-4.7 l 0,-2.6 z"
   id="path4735"
   inkscape:connector-curvature="0" />
<path
   d="m 106.8,11.3 c 1.1,0.4 2.1,1.2 3,2.3 0.7,0.9 1.2,2 1.5,3.3 0.2,0.9 0.2,2.1 0.2,3.8 l 0,16.1 -6.9,0 0,-16.3 c 0,-1 -0.2,-1.8 -0.5,-2.4 -0.6,-1.2 -1.7,-1.8 -3.3,-1.8 -1.8,0 -3.1,0.8 -3.8,2.3 -0.4,0.8 -0.5,1.8 -0.5,2.9 l 0,15.2 -6.7,0 0,-15.1 c 0,-1.5 -0.2,-2.6 -0.5,-3.3 -0.6,-1.2 -1.7,-1.9 -3.3,-1.9 -1.9,0 -3.2,0.6 -3.9,1.9 -0.4,0.7 -0.5,1.8 -0.5,3.1 l 0,15.4 -6.8,0 0,-25.6 6.4,0 0,3.8 c 0.8,-1.3 1.6,-2.3 2.3,-2.8 1.3,-1 3,-1.5 5,-1.5 2,0 3.5,0.4 4.7,1.3 1,0.8 1.7,1.8 2.2,3.1 0.9,-1.5 2,-2.6 3.3,-3.3 1.4,-0.7 2.9,-1.1 4.6,-1.1 1.3,-0.1 2.4,0.2 3.5,0.6 z"
   id="path4737"
   inkscape:connector-curvature="0" />
<path
   d="m 132.8,11.7 c 1.8,0.8 3.2,2.1 4.4,3.8 1,1.5 1.7,3.3 2,5.3 0.2,1.2 0.3,2.9 0.2,5.1 l -18.5,0 c 0.1,2.6 1,4.4 2.7,5.4 1,0.6 2.2,1 3.7,1 1.5,0 2.8,-0.4 3.7,-1.2 0.5,-0.4 1,-1 1.4,-1.8 l 6.8,0 c -0.2,1.5 -1,3.1 -2.5,4.6 -2.3,2.5 -5.5,3.7 -9.6,3.7 -3.4,0 -6.4,-1 -9,-3.1 -2.6,-2.1 -3.9,-5.5 -3.9,-10.2 0,-4.4 1.2,-7.8 3.5,-10.2 2.3,-2.4 5.4,-3.5 9.1,-3.5 2.2,-0.1 4.2,0.3 6,1.1 z m -10,5.8 c -0.9,1 -1.5,2.2 -1.8,3.9 l 11.6,0 c -0.1,-1.7 -0.7,-3.1 -1.8,-4 -1.1,-0.9 -2.4,-1.4 -4,-1.4 -1.7,0.1 -3,0.6 -4,1.5 z"
   id="path4739"
   inkscape:connector-curvature="0" />
<path
   d="m 162.1,12.7 c 1.7,1.4 2.5,3.7 2.5,6.9 l 0,17.2 -6.9,0 0,-15.6 c 0,-1.3 -0.2,-2.4 -0.5,-3.1 -0.6,-1.3 -1.9,-2 -3.7,-2 -2.2,0 -3.8,1 -4.6,2.9 -0.4,1 -0.6,2.3 -0.6,3.9 l 0,13.8 -6.7,0 0,-25.5 6.5,0 0,3.8 c 0.9,-1.3 1.7,-2.3 2.4,-2.8 1.4,-1 3.1,-1.5 5.2,-1.5 2.6,-0.1 4.7,0.6 6.4,2 z"
   id="path4741"
   inkscape:connector-curvature="0" />
</svg>