<?xml version="1.0" encoding="UTF-8" standalone="no"?>
<!-- Created with Inkscape (http://www.inkscape.org/) -->

<svg
   xmlns:dc="http://purl.org/dc/elements/1.1/"
   xmlns:cc="http://creativecommons.org/ns#"
   xmlns:rdf="http://www.w3.org/1999/02/22-rdf-syntax-ns#"
   xmlns:svg="http://www.w3.org/2000/svg"
   xmlns="http://www.w3.org/2000/svg"
   xmlns:xlink="http://www.w3.org/1999/xlink"
   xmlns:sodipodi="http://sodipodi.sourceforge.net/DTD/sodipodi-0.dtd"
   xmlns:inkscape="http://www.inkscape.org/namespaces/inkscape"
   width="210mm"
   height="297mm"
   viewBox="0 0 744.09448819 1052.3622047"
   id="svg2"
   version="1.1"
   inkscape:version="0.91 r13725"
   sodipodi:docname="twitter-fake.svg">
  <defs
     id="defs4">
    <marker
       inkscape:stockid="TriangleOutL"
       orient="auto"
       refY="0.0"
       refX="0.0"
       id="TriangleOutL"
       style="overflow:visible"
       inkscape:isstock="true">
      <path
         id="path4476"
         d="M 5.77,0.0 L -2.88,5.0 L -2.88,-5.0 L 5.77,0.0 z "
         style="fill-rule:evenodd;stroke:#000000;stroke-width:1pt;stroke-opacity:1;fill:#000000;fill-opacity:1"
         transform="scale(0.8)" />
    </marker>
    <marker
       inkscape:stockid="Arrow2Lend"
       orient="auto"
       refY="0.0"
       refX="0.0"
       id="Arrow2Lend"
       style="overflow:visible;"
       inkscape:isstock="true">
      <path
         id="path4355"
         style="fill-rule:evenodd;stroke-width:0.625;stroke-linejoin:round;stroke:#000000;stroke-opacity:1;fill:#000000;fill-opacity:1"
         d="M 8.7185878,4.0337352 L -2.2072895,0.016013256 L 8.7185884,-4.0017078 C 6.9730900,-1.6296469 6.9831476,1.6157441 8.7185878,4.0337352 z "
         transform="scale(1.1) rotate(180) translate(1,0)" />
    </marker>
  </defs>
  <sodipodi:namedview
     id="base"
     pagecolor="#ffffff"
     bordercolor="#666666"
     borderopacity="1.0"
     inkscape:pageopacity="0.0"
     inkscape:pageshadow="2"
     inkscape:zoom="0.5"
     inkscape:cx="63.291982"
     inkscape:cy="685"
     inkscape:document-units="px"
     inkscape:current-layer="layer2"
     showgrid="false"
     inkscape:window-width="1440"
     inkscape:window-height="827"
     inkscape:window-x="0"
     inkscape:window-y="0"
     inkscape:window-maximized="1" />
  <metadata
     id="metadata7">
    <rdf:RDF>
      <cc:Work
         rdf:about="">
        <dc:format>image/svg+xml</dc:format>
        <dc:type
           rdf:resource="http://purl.org/dc/dcmitype/StillImage" />
        <dc:title></dc:title>
      </cc:Work>
    </rdf:RDF>
  </metadata>
  <g
     inkscape:label="Layer 1"
     inkscape:groupmode="layer"
     id="layer1"
     style="display:inline">
    <rect
       style="opacity:0.77999998;fill:none;fill-opacity:0.72435895;stroke:#d3caca;stroke-width:2;stroke-miterlimit:4;stroke-dasharray:none;stroke-opacity:0.49358975"
       id="rect4143"
       width="567.27271"
       height="200"
       x="72.727272"
       y="283.2713"
       ry="3.7766497" />
    <rect
       ry="3.6777897"
       y="308.79416"
       x="471.1413"
       height="42.580891"
       width="131.06192"
       id="rect4211"
       style="opacity:0.77999998;fill:none;fill-opacity:0.72435895;stroke:#1da1f2;stroke-width:2;stroke-miterlimit:4;stroke-dasharray:none;stroke-opacity:1" />
    <g
       id="g4270"
       transform="matrix(0.09985363,0,0,0.09985363,427.70082,260.08859)">
      <path
         id="path4272"
         d="m 633.9,812.04 c 112.46,0 173.96,-93.168 173.96,-173.96 0,-2.6463 -0.0539,-5.2806 -0.1726,-7.903 11.938,-8.6302 22.314,-19.4 30.498,-31.66 -10.955,4.8694 -22.744,8.1474 -35.111,9.6255 12.623,-7.5693 22.314,-19.543 26.886,-33.817 -11.813,7.0031 -24.895,12.093 -38.824,14.841 -11.157,-11.884 -27.041,-19.317 -44.629,-19.317 -33.764,0 -61.144,27.381 -61.144,61.132 0,4.7978 0.5364,9.4646 1.5854,13.941 -50.815,-2.5569 -95.874,-26.886 -126.03,-63.88 -5.2508,9.0354 -8.2785,19.531 -8.2785,30.73 0,21.212 10.794,39.938 27.208,50.893 -10.031,-0.30992 -19.454,-3.0635 -27.69,-7.6468 -0.009,0.25652 -0.009,0.50661 -0.009,0.78077 0,29.61 21.075,54.332 49.051,59.934 -5.1376,1.4006 -10.543,2.1516 -16.122,2.1516 -3.9336,0 -7.766,-0.38716 -11.491,-1.1026 7.7838,24.293 30.355,41.971 57.115,42.465 -20.926,16.402 -47.287,26.171 -75.937,26.171 -4.929,0 -9.7983,-0.28036 -14.584,-0.84634 27.059,17.344 59.189,27.464 93.722,27.464"
         inkscape:connector-curvature="0"
         style="fill:#1da1f2" />
    </g>
    <rect
       style="opacity:0.77999998;fill:none;fill-opacity:0.72435895;stroke:#0c0d0e;stroke-width:0.5;stroke-miterlimit:4;stroke-dasharray:none;stroke-opacity:1"
       id="rect4286"
       width="58.435551"
       height="58.435551"
       x="90.923515"
       y="308.35345"
       ry="5.0471859" />
  </g>
  <g
     inkscape:groupmode="layer"
     id="layer4"
     inkscape:label="ico">
    <g
       id="g5542"
       transform="matrix(0.22588031,0,0,0.22588031,128.53528,452.93086)"
       style="fill:#6a7782;fill-opacity:1">
      <path
         id="path5530"
         d="m 19.643,14.286 -19.643,25 14.286,0 0,35.714 c 0,3.571 0,3.571 3.571,3.571 l 44.643,0 -8.929,-10.714 -28.571,0 0,-28.571 14.286,0 -19.643,-25 z m 62.5,7.143 -44.643,0 8.929,10.714 28.571,0 0,28.571 -14.286,0 19.643,25 19.643,-25 -14.286,0 0,-35.714 c 0,-3.571 0,-3.571 -3.571,-3.571 z"
         inkscape:connector-curvature="0"
         style="fill:#6a7782;fill-opacity:1" />
    </g>
    <g
       id="g5663"
       transform="matrix(0.02272384,0,0,0.02272384,169.96709,454.95469)"
       style="fill:#6a7782;fill-opacity:1">
      <g
         id="g5635"
         style="fill:#6a7782;fill-opacity:1">
        <defs
           id="defs5637">
          <path
             d="M 274.9,198.7 C 243.8,154.5 207.8,132.4 148.3,132.4 66.1,132.4 -1.1,194 -0.8,270 c -2,229.7 225.6,413.5 305.5,413.5 79.9,0 288.2,-183.3 290.9,-413.5 0.3,-76 -66.9,-137.6 -149.1,-137.6 -59.8,0 -97.3,21.6 -126.5,66 -12.4,17.4 -13,18 -22.6,17.7 -10.7,1.1 -10.4,-1.2 -22.5,-17.4 z"
             id="d"
             inkscape:connector-curvature="0" />
        </defs>
        <clipPath
           id="c">
          <use
             id="use5641"
             overflow="visible"
             xlink:href="#d"
             style="overflow:visible"
             x="0"
             y="0"
             width="100%"
             height="100%" />
        </clipPath>
        <g
           id="g5643"
           clip-path="url(#c)"
           style="fill:#6a7782;fill-opacity:1">
          <defs
             id="defs5645">
            <rect
               height="30601.5"
               width="17204.699"
               y="-17577"
               x="-10415.4"
               id="b" />
          </defs>
          <clipPath
             id="a">
            <use
               id="use5649"
               overflow="visible"
               xlink:href="#b"
               style="overflow:visible"
               x="0"
               y="0"
               width="100%"
               height="100%" />
          </clipPath>
          <rect
             id="rect5651"
             height="1009.9"
             width="1055.2"
             clip-path="url(#a)"
             y="-97"
             x="-230.2"
             style="fill:#6a7782;fill-opacity:1" />
        </g>
      </g>
    </g>
    <path
       id="path5728"
       d="m 102.09509,462.68187 -1.21817,0 0,-5.12635 c 0,-0.22069 -0.12311,-0.4233 -0.31894,-0.52653 -0.19674,-0.10232 -0.43234,-0.0863 -0.614851,0.0395 l -9.567611,6.66912 c -0.158569,0.11113 -0.25389,0.29342 -0.25389,0.48722 0,0.19449 0.09532,0.37677 0.25389,0.487 l 9.567839,6.66912 c 0.102093,0.0718 0.220453,0.10683 0.339943,0.10683 0.0937,0 0.18771,-0.021 0.2749,-0.0673 0.19584,-0.10187 0.31894,-0.30561 0.31894,-0.52675 l 0,-5.12455 1.21818,0 c 2.18832,0 4.52686,1.02098 4.52686,3.89057 0,0.85134 0.69165,1.54276 1.54367,1.54276 0.85247,0 1.54412,-0.69164 1.54412,-1.54276 -2.3e-4,-4.10786 -3.13184,-6.9779 -7.61488,-6.9779 z"
       inkscape:connector-curvature="0"
       style="fill:#6a7782;fill-opacity:1" />
  </g>
  <g
     inkscape:groupmode="layer"
     id="layer2"
     inkscape:label="Layer 2" />
  <g
     inkscape:groupmode="layer"
     id="layer5"
     inkscape:label="banner">
    <path
       style="fill:#d40000;fill-rule:evenodd;stroke:#d40000;stroke-width:1px;stroke-linecap:butt;stroke-linejoin:miter;stroke-opacity:1"
       d="m 96.167525,282.79059 10.982065,0 -34.91997,41.66212 0.02814,-14.81707 z"
       id="path5758"
       inkscape:connector-curvature="0"
       sodipodi:nodetypes="ccccc" />
  </g>
  <g
     inkscape:groupmode="layer"
     id="layer3"
     inkscape:label="copy">
    <text
       xml:space="preserve"
       style="font-style:normal;font-weight:normal;font-size:19.23308563px;line-height:125%;font-family:sans-serif;letter-spacing:0px;word-spacing:0px;fill:#1da1f2;fill-opacity:1;stroke:none;stroke-width:1px;stroke-linecap:butt;stroke-linejoin:miter;stroke-opacity:1"
       x="519.08386"
       y="336.18314"
       id="text4214"
       sodipodi:linespacing="125%"><tspan
         sodipodi:role="line"
         id="tspan4216"
         x="519.08386"
         y="336.18314"
         style="font-style:normal;font-variant:normal;font-weight:bold;font-stretch:normal;font-family:sans-serif;-inkscape-font-specification:'sans-serif Bold';fill:#1da1f2;fill-opacity:1">Follow</tspan></text>
    <text
       xml:space="preserve"
       style="font-style:normal;font-weight:normal;font-size:40px;line-height:125%;font-family:sans-serif;letter-spacing:0px;word-spacing:0px;fill:#000000;fill-opacity:1;stroke:none;stroke-width:1px;stroke-linecap:butt;stroke-linejoin:miter;stroke-opacity:1"
       x="161.31342"
       y="325.2829"
       id="text4307"
       sodipodi:linespacing="125%"><tspan
         sodipodi:role="line"
         id="tspan4309"
         x="161.31342"
         y="325.2829"
         style="font-style:normal;font-variant:normal;font-weight:bold;font-stretch:normal;font-size:15px;line-height:125%;font-family:Arial;-inkscape-font-specification:'Arial, Bold';text-align:start;writing-mode:lr-tb;text-anchor:start">BigBelly #2250</tspan></text>
    <text
       sodipodi:linespacing="125%"
       id="text4311"
       y="341.2829"
       x="161.31342"
       style="font-style:normal;font-variant:normal;font-weight:bold;font-stretch:normal;font-size:12.5px;line-height:125%;font-family:Arial;-inkscape-font-specification:'Arial, Bold';text-align:start;letter-spacing:0px;word-spacing:0px;writing-mode:lr-tb;text-anchor:start;fill:#6a7782;fill-opacity:1;stroke:none;stroke-width:1px;stroke-linecap:butt;stroke-linejoin:miter;stroke-opacity:1"
       xml:space="preserve"><tspan
         sodipodi:role="line"
         id="tspan4315"
         x="161.31342"
         y="341.2829">@bigbelly_2250</tspan></text>
    <text
       xml:space="preserve"
       style="font-style:normal;font-variant:normal;font-weight:bold;font-stretch:normal;font-size:12.5px;line-height:125%;font-family:Arial;-inkscape-font-specification:'Arial, Bold';text-align:start;letter-spacing:0px;word-spacing:0px;writing-mode:lr-tb;text-anchor:start;fill:#6a7782;fill-opacity:1;stroke:none;stroke-width:1px;stroke-linecap:butt;stroke-linejoin:miter;stroke-opacity:1"
       x="90.301201"
       y="425.2829"
       id="text4317"
       sodipodi:linespacing="125%"><tspan
         sodipodi:role="line"
         id="tspan4321"
         x="90.301201"
         y="425.2829">12:51 AM - 3 September 2017</tspan></text>
    <text
       sodipodi:linespacing="125%"
       id="text4323"
       y="401.2829"
       x="90.301201"
       style="font-style:normal;font-variant:normal;font-weight:bold;font-stretch:normal;font-size:12.5px;line-height:125%;font-family:Arial;-inkscape-font-specification:'Arial, Bold';text-align:start;letter-spacing:0px;word-spacing:0px;writing-mode:lr-tb;text-anchor:start;fill:#000000;fill-opacity:1;stroke:none;stroke-width:1px;stroke-linecap:butt;stroke-linejoin:miter;stroke-opacity:1"
       xml:space="preserve"><tspan
         y="401.2829"
         x="90.301201"
         id="tspan4325"
         sodipodi:role="line">YELLOW</tspan></text>
    <text
       xml:space="preserve"
       style="font-style:normal;font-variant:normal;font-weight:bold;font-stretch:normal;font-size:8.75px;line-height:125%;font-family:Arial;-inkscape-font-specification:'Arial, Bold';text-align:start;letter-spacing:0px;word-spacing:0px;writing-mode:lr-tb;text-anchor:start;fill:#ffffff;fill-opacity:1;stroke:none;stroke-width:1px;stroke-linecap:butt;stroke-linejoin:miter;stroke-opacity:1"
       x="-183.21902"
       y="267.06155"
       id="text5760"
       sodipodi:linespacing="125%"
       transform="matrix(0.6643773,-0.74739735,0.74739735,0.6643773,0,0)"><tspan
         sodipodi:role="line"
         id="tspan5764"
         x="-183.21902"
         y="267.06155">(faked)</tspan></text>
  </g>
</svg>
